<svg xmlns="http://www.w3.org/2000/svg" viewBox="0 0 211.18 111.75"><defs><style>.a{fill:#06a64f;}.b{fill:#ec2227;}</style></defs><title>logo</title><path d="M82.58,64.17h6.11v30.9h-4V70.31l-.3,0-3.53,8.53C78.7,84,76.52,89.12,74.46,94.33c-.53,1.35-1.53.69-2.31.77A1.54,1.54,0,0,1,71,94.28c-3.15-7.59-6.25-15.21-9.37-22.82a1.7,1.7,0,0,0-.79-.86q0,2.33,0,4.66c0,6.25,0,12.51,0,18.76,0,.89-.2,1.22-1.12,1.15s-2,0-3.05,0v-31c1.91,0,3.78,0,5.64,0,.32,0,.75.54.91.92,1.75,4.11,3.46,8.25,5.19,12.38q2,4.71,4,9.41a6.21,6.21,0,0,0,.47.73Z"/><path d="M126.94,64.08c5.58.3,11.13-.65,16.52.9,5.83,1.67,9,5.77,10.11,11.62a15.2,15.2,0,0,1-1.52,10.47,14.53,14.53,0,0,1-11.55,7.76c-4.44.47-9,.1-13.56.1Zm4.15,27a4.28,4.28,0,0,0,.74.11c2.43-.07,4.88,0,7.28-.27,4.8-.62,9-3.51,10-8.52,1.1-5.29-.91-11.27-6.75-13.47-3.65-1.37-7.47-.59-11.3-.78Z"/><path d="M181.61,64.22v3.94H165.88V77.3h14.61v4H166v9.91h16.4v3.89H161.75V64.22Z"/><path d="M98.34,95.08V64.19c.41,0,.76-.07,1.11-.07,5.84,0,11.67,0,17.51,0,1,0,1.36.28,1.28,1.28s0,1.81,0,2.81H103.35c-.54,0-.91.09-.9.78,0,2.71,0,5.43,0,8.31H117v4H102.54v9.85H119v3.92Z"/><path d="M206.36,70.06c-3-2.82-6-3.37-9.09-2s-3.39,5.95-.84,7.36a32,32,0,0,0,5.33,2.27c2,.69,4.12,1.3,5.77,2.75,3.61,3.18,3.3,8.58,0,12.25a9.78,9.78,0,0,1-6.45,3.08c-3.68.4-7.15-.13-10.17-2.47-.56-.44-1.1-.91-1.79-1.48l3.8-3.31a13.62,13.62,0,0,0,1.18,1.51c2.93,2.86,8.61,2.41,10.69-.8,1.31-2,.78-4.86-1.22-5.65s-3.81-1.59-5.75-2.28c-2.75-1-5.3-2.17-6.7-5a8.7,8.7,0,0,1,4.6-12,14.25,14.25,0,0,1,11,.2,8.9,8.9,0,0,1,2.38,1.77,1,1,0,0,1,.09,1C208.33,68.27,207.35,69.13,206.36,70.06Z"/><path class="a" d="M40.84,68.49c.21-5.16-1.61-9.77-3.9-14.16-1.83-3.52-4.06-6.84-6.2-10.19C27.5,39.08,24.06,34.15,21,29c-2.79-4.62-5-9.55-5.49-15A19.89,19.89,0,0,1,18.8.89a23.24,23.24,0,0,0,2.77,11.55c2.22,4.25,4.76,8.34,7.32,12.4,3.65,5.79,7.63,11.37,11.1,17.25,3.06,5.19,5,10.85,4.49,17A17,17,0,0,1,40.84,68.49Z"/><path class="a" d="M8.9,31.78c2.28,6.39,7,10.49,11.66,14.61s10,8.12,13.88,13.32c3.18,4.24,4.53,8.89,3.11,14.15a4,4,0,0,1-.2.52c-.87-1.7-1.65-3.55-2.7-5.23a39.36,39.36,0,0,0-7.53-8.29c-3.58-3.18-7.23-6.28-10.73-9.54a27.38,27.38,0,0,1-7.25-10.1A14.57,14.57,0,0,1,8.9,31.78Z"/><path class="a" d="M36.25,79.81C33,75.94,28.5,74.31,24,72.64s-8.94-3.11-13.27-5C6.85,66,3.66,63.32,2.43,59c-.17-.59-.21-1.22-.37-2.15,4.17,4.43,9.47,6,14.68,7.78,4.63,1.57,9.4,2.84,13.54,5.58C33.73,72.45,36,75.5,36.25,79.81Z"/><path d="M37.07,86.45c-4-2.39-8.15-2.13-12.28-1.92-4.54.23-9.07.92-13.6,0a9.52,9.52,0,0,1-6.94-4.8,2.13,2.13,0,0,1-.13-.33s0-.07.06-.17c4.84,2.33,9.94,1.46,15,1.19,3.69-.2,7.4-.57,11.06.35A9.82,9.82,0,0,1,37.07,86.45Z"/><path d="M40.13,90.93c-4.37-.73-7.86,1.2-11.51,2.51a61,61,0,0,1-7.76,2.37,6.85,6.85,0,0,1-6.58-2.17c3.63.54,6.6-.82,9.62-2s6.15-2.8,9.58-3.12A7.78,7.78,0,0,1,40.13,90.93Z"/><path d="M44.09,95.49c-3.24,0-5.8,1.77-8.47,3.26a72,72,0,0,1-6.8,3.43,6.12,6.12,0,0,1-6.28-.83c4.33-.27,7.43-2.88,10.85-4.81,2.28-1.29,4.56-2.72,7.34-2.43a22.06,22.06,0,0,1,3.46.93Z"/><path class="b" d="M46.63,100.33c-3.05,1.15-5.06,3.56-7.47,5.4-1.76,1.34-3.59,2.35-6.13,1.62a14.52,14.52,0,0,0,2.24-1.14c1.77-1.34,3.45-2.79,5.2-4.16a7.26,7.26,0,0,1,4.36-2A11.55,11.55,0,0,1,46.63,100.33Z"/><path class="b" d="M42.61,109.28c1.77-1.54,3.49-3.05,5.23-4.54a4.19,4.19,0,0,1,3.84-1.27c-2,1.66-4,3.38-6,5A3.57,3.57,0,0,1,42.61,109.28Z"/><path class="b" d="M50.27,110.49,54.2,107a3.2,3.2,0,0,1,3.39-.94c-1.23,1.06-2.53,2.15-3.8,3.27C52.72,110.3,51.58,110.9,50.27,110.49Z"/></svg>